<?xml version="1.0" encoding="UTF-8"?>
<svg width="32px" height="32px" viewBox="0 0 32 32" version="1.1" xmlns="http://www.w3.org/2000/svg" xmlns:xlink="http://www.w3.org/1999/xlink">
    <title>切片</title>
    <defs>
        <linearGradient x1="0%" y1="0%" x2="100%" y2="100%" id="linearGradient-1">
            <stop stop-color="#2AFADF" offset="0%"></stop>
            <stop stop-color="#4C83FF" offset="100%"></stop>
        </linearGradient>
    </defs>
    <g id="主页面" stroke="none" stroke-width="1" fill="none" fill-rule="evenodd">
        <g id="Homepage" transform="translate(-398.000000, -1052.000000)">
            <g id="编组-10" transform="translate(360.000000, 940.000000)">
                <g id="编组-14" transform="translate(0.000000, 65.000000)">
                    <g id="Token/NU-32" transform="translate(38.000000, 47.000000)">
                        <circle id="椭圆形" fill="url(#linearGradient-1)" cx="16" cy="16" r="16"></circle>
                        <path d="M17.6517461,5.94813611 L22.9498215,11.258481 C25.323668,13.6378249 25.3191773,17.5000046 22.9397912,19.884901 C20.5841989,22.2459483 16.7840665,22.2739704 14.4049586,19.9656197 L14.3333023,19.8949546 L12.6281101,18.1858134 C12.157501,17.7141145 12.1527949,16.9522701 12.6139918,16.4747682 L12.6299731,16.4585187 C13.1053359,15.9820551 13.8760512,15.9820551 14.3514139,16.4585187 L16.0566061,18.1676598 C17.480914,19.5952662 19.7928678,19.5925655 21.2204995,18.1616277 C22.6338548,16.7449993 22.6506292,14.4596395 21.2688188,13.028869 L21.2265177,12.9857757 L17.1548118,8.90464046 C16.9193196,8.66860287 16.7942686,8.343836 16.8104954,8.01042492 L16.896649,6.24023342 C16.90856,5.99549851 17.1161542,5.80677982 17.3603237,5.81871843 C17.4701282,5.82408729 17.5740102,5.87022022 17.6517461,5.94813611 Z M9.06020882,12.8823548 C11.4158011,10.5213074 15.2159335,10.4932854 17.5950414,12.8016361 L17.6666977,12.8723012 L19.3718899,14.5814424 C19.842499,15.0531413 19.8472051,15.8149857 19.3860082,16.2924876 L19.3700269,16.3087371 C18.8946641,16.7852007 18.1239488,16.7852007 17.6485861,16.3087371 L15.9433939,14.5995959 C14.519086,13.1719896 12.2071322,13.1746903 10.7795005,14.6056281 C9.36614519,16.0222565 9.34937081,18.3076162 10.7311812,19.7383868 L10.7734823,19.7814801 L14.7347084,23.7518797 C14.958614,23.9763039 15.0831671,24.2814887 15.0803811,24.5988601 L15.063961,26.4693182 C15.0618101,26.7143346 14.8619003,26.911212 14.61745,26.9090737 C14.5014097,26.9080327 14.3904113,26.8613747 14.3083553,26.7791287 L9.05017846,21.5087748 C6.67633199,19.1294309 6.68082274,15.2672511 9.06020882,12.8823548 Z" id="Nexus-logo-" fill="#FFFFFF" transform="translate(16.000000, 16.363636) rotate(-315.000000) translate(-16.000000, -16.363636) "></path>
                    </g>
                </g>
            </g>
        </g>
    </g>
</svg>