<?xml version="1.0" encoding="UTF-8"?>
<svg width="32px" height="32px" viewBox="0 0 32 32" version="1.1" xmlns="http://www.w3.org/2000/svg" xmlns:xlink="http://www.w3.org/1999/xlink">
    <title>切片</title>
    <defs>
        <linearGradient x1="0%" y1="0%" x2="99.2964764%" y2="99.2964764%" id="linearGradient-1">
            <stop stop-color="#FFE985" offset="0%"></stop>
            <stop stop-color="#FAAB2B" offset="100%"></stop>
        </linearGradient>
    </defs>
    <g id="主页面" stroke="none" stroke-width="1" fill="none" fill-rule="evenodd">
        <g id="Homepage" transform="translate(-399.000000, -1169.000000)">
            <g id="编组-10" transform="translate(360.000000, 940.000000)">
                <g id="编组-14备份" transform="translate(0.000000, 182.000000)">
                    <g id="编组" transform="translate(39.000000, 47.000000)">
                        <circle id="椭圆形" fill="url(#linearGradient-1)" cx="16" cy="16" r="16"></circle>
                        <path d="M24,20 L24,24 L8,24 L8,20 L24,20 Z M24,14 L24,18 L8,18 L8,14 L24,14 Z M24,8 L24,12 L14,12 L14,8 L24,8 Z M12,8 L12,12 L8,12 L8,8 L12,8 Z" id="形状结合" fill="#FFFFFF" transform="translate(16.000000, 16.000000) rotate(-45.000000) translate(-16.000000, -16.000000) "></path>
                    </g>
                </g>
            </g>
        </g>
    </g>
</svg>