<?xml version="1.0" encoding="UTF-8"?>
<svg width="32px" height="32px" viewBox="0 0 32 32" version="1.1" xmlns="http://www.w3.org/2000/svg" xmlns:xlink="http://www.w3.org/1999/xlink">
    <title>切片</title>
    <defs>
        <linearGradient x1="0%" y1="0%" x2="97.6343272%" y2="97.6343272%" id="linearGradient-1">
            <stop stop-color="#2775C9" offset="0%"></stop>
            <stop stop-color="#3737CE" offset="100%"></stop>
        </linearGradient>
    </defs>
    <g id="主页面" stroke="none" stroke-width="1" fill="none" fill-rule="evenodd">
        <g id="Homepage" transform="translate(-404.000000, -1403.000000)">
            <g id="编组-10" transform="translate(360.000000, 940.000000)">
                <g id="编组-14备份-3" transform="translate(0.000000, 416.000000)">
                    <g id="USDC" transform="translate(44.000000, 47.000000)">
                        <circle id="椭圆形" fill="url(#linearGradient-1)" cx="16" cy="16" r="16"></circle>
                        <circle id="椭圆形" fill="#FFFFFF" cx="16" cy="16" r="12"></circle>
                        <path d="M12.9850713,8.37885046 C13.0520456,8.64674792 12.8891653,8.91821516 12.6212678,8.98518953 C10.2165232,9.58637569 8,12.3570296 8,16.0001183 C8,19.6432069 10.2165232,22.4138609 12.6212678,23.015047 C12.8891653,23.0820214 13.0520456,23.3534886 12.9850713,23.6213861 C12.9180969,23.8892835 12.6466296,24.0521639 12.3787322,23.9851895 C9.53347683,23.2738757 7,20.1070296 7,16.0001183 C7,11.8932069 9.53347683,8.72636087 12.3787322,8.01504703 C12.6466296,7.94807266 12.9180969,8.11095301 12.9850713,8.37885046 Z M19.5322401,8.00106413 L19.6213861,8.01504703 C22.4666414,8.72636087 25.0001183,11.8932069 25.0001183,16.0001183 C25.0001183,20.1070296 22.4666414,23.2738757 19.6213861,23.9851895 C19.3534886,24.0521639 19.0820214,23.8892835 19.015047,23.6213861 C18.9480727,23.3534886 19.110953,23.0820214 19.3788505,23.015047 C21.7835951,22.4138609 24.0001183,19.6432069 24.0001183,16.0001183 C24.0001183,12.3570296 21.7835951,9.58637569 19.3788505,8.98518953 C19.110953,8.91821516 18.9480727,8.64674792 19.015047,8.37885046 C19.0745798,8.14071939 19.2956872,7.9855648 19.5322401,8.00106413 Z M16.0496657,9.5 C16.4011461,9.5 16.7067813,9.68928363 16.7067813,10.135993 L16.7067813,10.135993 L16.7067813,10.7644147 C17.6618911,10.8855562 18.5100287,11.2338381 19.0754537,11.7638323 C19.5033429,12.1802563 19.7554919,12.6421083 19.7554919,13.0661037 C19.7554919,13.5052417 19.4269341,13.8005242 18.9990449,13.8005242 C18.6475645,13.8005242 18.3877746,13.6718113 18.0515759,13.3235294 C17.3868195,12.5891089 16.7908309,12.3013978 15.9350525,12.3013978 C14.8806113,12.3013978 14.2082139,12.8616773 14.2082139,13.6339546 C14.2082139,14.2775189 14.6819484,14.716657 15.65234,14.9286546 L15.65234,14.9286546 L17.2034384,15.2769365 C19.0907354,15.6857892 20,16.5943506 20,18.093477 C20,19.8348864 18.7163324,21.031159 16.660936,21.250728 L16.660936,21.250728 L16.660936,21.8564356 C16.660936,22.3107164 16.3553009,22.5 16.0114613,22.5 C15.6599809,22.5 15.3543457,22.3107164 15.3543457,21.8564356 L15.3543457,21.8564356 L15.3543457,21.2582994 C14.2922636,21.1598719 13.3371538,20.8191613 12.7258835,20.2664531 C12.2597899,19.8651718 12,19.4033197 12,18.9566104 C12,18.4493302 12.3514804,18.1540478 12.817574,18.1540478 C13.1079274,18.1540478 13.321872,18.2373326 13.7115568,18.6234712 C14.3992359,19.3578917 15.1556829,19.6986022 16.0649475,19.6986022 C17.2798472,19.6986022 17.9598854,19.1534653 17.9598854,18.290332 C17.9598854,17.6240536 17.4937918,17.2303436 16.3629417,16.9653465 L16.3629417,16.9653465 L14.8118434,16.6094933 C13.069723,16.2233547 12.1604585,15.2466511 12.1604585,13.7778101 C12.1604585,12.0969715 13.4212034,10.9234129 15.400191,10.7417006 L15.400191,10.7417006 L15.400191,10.135993 C15.400191,9.68171229 15.7058262,9.5 16.0496657,9.5 Z" id="形状" fill="#2B68CA" fill-rule="nonzero"></path>
                    </g>
                </g>
            </g>
        </g>
    </g>
</svg>