<?xml version="1.0" encoding="UTF-8"?>
<svg width="24px" height="24px" viewBox="0 0 24 24" version="1.1" xmlns="http://www.w3.org/2000/svg" xmlns:xlink="http://www.w3.org/1999/xlink">
    <title>切片</title>
    <defs>
        <linearGradient x1="0%" y1="0%" x2="100%" y2="100%" id="linearGradient-1">
            <stop stop-color="#00E496" offset="0%"></stop>
            <stop stop-color="#00947F" offset="100%"></stop>
        </linearGradient>
    </defs>
    <g id="主页面" stroke="none" stroke-width="1" fill="none" fill-rule="evenodd">
        <g id="Homepage" transform="translate(-391.000000, -1161.000000)">
            <g id="编组-10" transform="translate(360.000000, 940.000000)">
                <g id="编组-14备份" transform="translate(0.000000, 182.000000)">
                    <g id="桃子" transform="translate(31.000000, 39.000000)">
                        <circle id="椭圆形" fill="url(#linearGradient-1)" cx="12" cy="12" r="12"></circle>
                        <path d="M13.2388096,4.46110208 L17.2123662,8.44386073 C18.992751,10.2283686 18.9893829,13.1250035 17.2048434,14.9136757 C15.4381492,16.6844613 12.5880499,16.7054778 10.8037189,14.9742148 L10.7499767,14.9212159 L9.47108256,13.6393601 C9.11812572,13.2855858 9.11459615,12.7142026 9.46049386,12.3560761 L9.47247984,12.343889 C9.8290019,11.9865413 10.4070384,11.9865413 10.7635605,12.343889 L12.0424546,13.6257449 C13.1106855,14.6964496 14.8446509,14.6944241 15.9153746,13.6212208 C16.9753911,12.5587495 16.9879719,10.8447297 15.9516141,9.77165176 L15.9198883,9.73933177 L12.8661089,6.67848034 C12.6894897,6.50145216 12.5957014,6.257877 12.6078715,6.00781869 L12.6724867,4.68017507 C12.68142,4.49662388 12.8371157,4.35508487 13.0202428,4.36403882 C13.1025962,4.36806547 13.1805077,4.40266517 13.2388096,4.46110208 Z M6.79515662,9.66176611 C8.56185079,7.89098058 11.4119501,7.86996405 13.1962811,9.60122704 L13.2500233,9.65422591 L14.5289174,10.9360818 C14.8818743,11.289856 14.8854039,11.8612393 14.5395061,12.2193657 L14.5275202,12.2315528 C14.1709981,12.5889005 13.5929616,12.5889005 13.2364395,12.2315528 L11.9575454,10.949697 C10.8893145,9.87899221 9.15534913,9.88101772 8.0846254,10.9542211 C7.02460889,12.0166924 7.01202811,13.7307122 8.04838588,14.8037901 L8.08011173,14.8361101 L11.0510313,17.8139098 C11.2189605,17.9822279 11.3123754,18.2111165 11.3102858,18.4491451 L11.2979708,19.8519886 C11.2963576,20.035751 11.1464252,20.183409 10.9630875,20.1818052 C10.8760573,20.1810245 10.7928085,20.146031 10.7312665,20.0843465 L6.78763384,16.1315811 C5.00724899,14.3470732 5.01061705,11.4504384 6.79515662,9.66176611 Z" id="Nexus-logo-" fill="#FFFFFF"></path>
                    </g>
                </g>
            </g>
        </g>
    </g>
</svg>