<?xml version="1.0" encoding="UTF-8"?>
<svg width="64px" height="64px" viewBox="0 0 64 64" version="1.1" xmlns="http://www.w3.org/2000/svg" xmlns:xlink="http://www.w3.org/1999/xlink">
    <title>Add</title>
    <g id="NEXUS-Design-System" stroke="none" stroke-width="1" fill="none" fill-rule="evenodd">
        <g id="Add">
            <circle id="椭圆形" fill-opacity="0.12691215" fill="#B4A3E3" cx="32" cy="32" r="32"></circle>
            <path d="M32,18 C33.1045695,18 34,18.8954305 34,20 L34,30 L44,30 C45.1045695,30 46,30.8954305 46,32 C46,33.1045695 45.1045695,34 44,34 L34,34 L34,44 C34,45.1045695 33.1045695,46 32,46 C30.8954305,46 30,45.1045695 30,44 L30,34 L20,34 C18.8954305,34 18,33.1045695 18,32 C18,30.8954305 18.8954305,30 20,30 L30,30 L30,20 C30,18.8954305 30.8954305,18 32,18 Z" id="路径" fill="#1DEE94"></path>
        </g>
    </g>
</svg>