<?xml version="1.0" encoding="utf-8"?>
<!-- Generator: Adobe Illustrator 25.2.1, SVG Export Plug-In . SVG Version: 6.00 Build 0)  -->
<svg version="1.1" id="图层_1" xmlns="http://www.w3.org/2000/svg" xmlns:xlink="http://www.w3.org/1999/xlink" x="0px" y="0px"
	 viewBox="0 0 64 64" style="enable-background:new 0 0 64 64;" xml:space="preserve">
<style type="text/css">
	.st0{fill-rule:evenodd;clip-rule:evenodd;fill:#B4A3E3;fill-opacity:0.1269;}
	.st1{fill:url(#路径_2_);}
	.st2{fill:url(#路径_3_);}
	.st3{fill:#01967A;}
</style>
<circle id="椭圆形" class="st0" cx="32" cy="32" r="32"/>
<linearGradient id="路径_2_" gradientUnits="userSpaceOnUse" x1="16.5" y1="1.0396" x2="16.5" y2="62.9487">
	<stop  offset="0" style="stop-color:#1DEE94;stop-opacity:0"/>
	<stop  offset="1" style="stop-color:#1DEE94"/>
</linearGradient>
<path id="路径" class="st1" d="M27.4,0.3c0.5-0.1,1.1,0.3,1.1,0.8s-0.3,1.1-0.8,1.1C13,4.4,2,17,2,32c0,16.6,13.4,30,30,30
	c0.6,0,1,0.4,1,1s-0.4,1-1,1C14.3,64,0,49.7,0,32C0,16,11.8,2.6,27.4,0.3z"/>
<linearGradient id="路径_3_" gradientUnits="userSpaceOnUse" x1="47.5" y1="63.1833" x2="47.5" y2="1.1064">
	<stop  offset="0" style="stop-color:#1DEE94;stop-opacity:0"/>
	<stop  offset="0.9614" style="stop-color:#1DEE94"/>
</linearGradient>
<path id="路径_1_" class="st2" d="M32,0c17.7,0,32,14.3,32,32c0,15.8-11.6,29.2-27.1,31.6c-0.5,0.1-1.1-0.3-1.1-0.8
	c-0.1-0.5,0.3-1.1,0.8-1.1C51.1,59.4,62,46.8,62,32C62,15.4,48.6,2,32,2c-0.6,0-1-0.4-1-1S31.4,0,32,0z"/>
<path id="形状结合" class="st3" d="M32,18c1.1,0,1.9,0.8,2,1.9l0,0.1v19.1l5.6-5.7c0.8-0.8,2-0.8,2.8,0c0.7,0.7,0.8,1.9,0.1,2.7
	l-0.1,0.1l-9,9.1c-0.1,0.1-0.1,0.1-0.2,0.1l-0.1,0.1L33,45.7l-0.1,0l-0.1,0l-0.1,0.1l-0.2,0.1l-0.2,0l-0.1,0l-0.1,0L32,46l-0.1,0
	l-0.2,0l-0.1,0l-0.1,0l-0.2-0.1l-0.1-0.1L31,45.7l-0.2-0.1l-0.1-0.1l-0.1-0.1l-0.1-0.1l-9-9.1c-0.8-0.8-0.8-2.1,0-2.8
	c0.7-0.7,1.9-0.8,2.7-0.1l0.1,0.1l5.6,5.7V20C30,18.9,30.9,18,32,18z"/>
</svg>
