<?xml version="1.0" encoding="UTF-8"?>
<svg width="24px" height="24px" viewBox="0 0 24 24" version="1.1" xmlns="http://www.w3.org/2000/svg" xmlns:xlink="http://www.w3.org/1999/xlink">
    <title>切片</title>
    <g id="主页面" stroke="none" stroke-width="1" fill="none" fill-rule="evenodd">
        <g id="确认导入币种" transform="translate(-730.000000, -815.000000)" fill="#DC3545" fill-rule="nonzero">
            <g id="编组-3" transform="translate(680.000000, 423.000000)">
                <g id="编组-6" transform="translate(30.000000, 380.000000)">
                    <g id="示警" transform="translate(20.000000, 12.000000)">
                        <path d="M12,0 C18.6246724,0.00662136668 23.9933786,5.3753276 24,12 C23.9933786,18.6246724 18.6246724,23.9933786 12,24 C5.3753276,23.9933786 0.00662136668,18.6246724 0,12 C0.00662136668,5.3753276 5.3753276,0.00662136668 12,0 Z M12,1.71600172 C6.32304863,1.72262097 1.72262097,6.32304863 1.71600172,12 C1.72262097,17.6769514 6.32304863,22.277379 12,22.2839983 C17.6769514,22.277379 22.277379,17.6769514 22.2839983,12 C22.277379,6.32304863 17.6769514,1.72262097 12,1.71600172 Z M12.1647362,15.8558559 C12.8897432,15.8558559 13.4774775,16.4435902 13.4774775,17.1685972 C13.4774775,17.8936042 12.8897432,18.4813385 12.1647362,18.4813385 C11.4397292,18.4813385 10.8519949,17.8936042 10.8519949,17.1685972 C10.8519949,16.4435902 11.4397292,15.8558559 12.1647362,15.8558559 Z M12,4 C12.5522847,4 13,4.44771525 13,5 L13,13 C13,13.5522847 12.5522847,14 12,14 C11.4477153,14 11,13.5522847 11,13 L11,5 C11,4.44771525 11.4477153,4 12,4 Z" id="警告"></path>
                    </g>
                </g>
            </g>
        </g>
    </g>
</svg>